<svg xmlns="http://www.w3.org/2000/svg" width="207.959" height="171.78" viewBox="0 0 155.969 128.835"><defs><clipPath id="a"><path d="M0 39h155.969v40H0zm0 0"/></clipPath><clipPath id="b"><path d="M24 0h108v128.836H24zm0 0"/></clipPath></defs><path d="M1 77.64v-3.66l10.145-15.046L1 43.887v-3.664h153.969v3.664l-10.145 15.047L154.97 73.98v3.66zm0 0" fill="#273642"/><g clip-path="url(#a)"><path d="M153.969 39.227H0v4.964l.344.508 9.594 14.235L.344 73.168 0 73.672v4.969h155.969v-4.97l-.34-.503-9.598-14.234 9.598-14.235.34-.508v-4.964zM2 74.285l10.352-15.351L2 43.582v-2.355h151.969v2.355l-10.352 15.352 10.352 15.351v2.356H2zm0 0" fill="#fff"/></g><path d="M45.477 101.277a43.862 43.862 0 0 1-6.094-5.414 43.476 43.476 0 0 1-11.727-29.758v-52.5L77.984 3.066l50.329 10.54v52.5a43.476 43.476 0 0 1-11.727 29.757 43.862 43.862 0 0 1-6.094 5.414l-32.508 23.836zm0 0" fill="#273642"/><g clip-path="url(#b)"><path d="M77.984 0l-1.23.258-47.328 9.91-4.77 1v54.937A46.45 46.45 0 0 0 37.191 97.91a46.729 46.729 0 0 0 6.512 5.785l30.734 22.54 3.547 2.6 3.547-2.6 30.735-22.54a46.729 46.729 0 0 0 6.511-5.785 46.45 46.45 0 0 0 12.535-31.805V11.168l-4.769-1L79.215.258zm0 6.129l47.329 9.914v50.062a40.604 40.604 0 0 1-16.594 32.75l-30.735 22.54-30.734-22.54a40.604 40.604 0 0 1-16.594-32.75V16.043l47.328-9.914" fill="#273642"/></g><path d="M46.066 100.469a42.512 42.512 0 0 1-5.949-5.29 42.469 42.469 0 0 1-11.46-29.074V14.418L77.983 4.086l49.329 10.332v51.687a42.469 42.469 0 0 1-11.461 29.075 42.512 42.512 0 0 1-5.95 5.289l-31.918 23.406zm0 0" fill="#273642"/><path d="M77.984 2.043l-.82.172-47.328 9.914-3.18.664v53.312a44.48 44.48 0 0 0 11.996 30.442 44.652 44.652 0 0 0 6.235 5.535l30.734 22.54 2.363 1.733 2.364-1.734 30.734-22.539a44.652 44.652 0 0 0 6.234-5.535 44.48 44.48 0 0 0 11.996-30.442V12.793l-3.18-.664-47.327-9.914zm0 4.086l47.329 9.914v50.062a40.604 40.604 0 0 1-16.594 32.75l-30.735 22.54-30.734-22.54a40.604 40.604 0 0 1-16.594-32.75V16.043l47.328-9.914" fill="#fff"/><path d="M20.316 30.242h115.336V67.66H20.316zm0 0" fill="#273642"/><path d="M136.652 29.242H19.316V68.66h117.336zm-2 37.418H21.316V31.242h113.336zm0 0" fill="#fff"/></svg>
