<svg xmlns="http://www.w3.org/2000/svg" width="274.289" height="189.545" viewBox="0 0 205.717 142.159"><defs><clipPath id="a"><path d="M0 16h205.719v126H0zm0 0"/></clipPath><clipPath id="b"><path d="M36 0h133v142.16H36zm0 0"/></clipPath></defs><path d="M11.996 136.371l4.805-17.5L2.375 107.86l-1.137-3.379 191.278-86.71 1.203 3.57-4.805 17.496 14.426 11.016 1.14 3.378-191.277 86.711zm0 0" fill="#fff"/><g clip-path="url(#a)"><path d="M191.094 17.313L1.648 103.195l-1.648.75.578 1.711.754 2.235.195.578.485.37 13.648 10.419-4.547 16.555-.16.59.195.581.754 2.23.707 2.095 2.012-.91 189.445-85.883 1.649-.746-.578-1.715-.754-2.235-.196-.578-.484-.37-13.644-10.419 4.543-16.555.16-.59-.196-.578-.75-2.234-.707-2.094zM13.043 136.343l4.898-17.855L3.227 107.25l-.754-2.23 189.449-85.883.75 2.23-4.899 17.86 14.72 11.234.75 2.23-189.446 85.883zm0 0" fill="#273642"/></g><path d="M39.344 107.922V3h126.058v104.922l-63.03 30.894zm0 0" fill="#273642"/><g clip-path="url(#b)"><path d="M36.344 0v109.793l3.36 1.644 60.026 29.426 2.641 1.297 2.645-1.297 60.027-29.425 3.36-1.645V0zm6 106.05V6h120.058v100.05l-60.03 29.427zm0 0" fill="#273642"/></g><path d="M40.344 107.297V4h124.058v103.297l-62.03 30.406zm0 0" fill="#273642"/><path d="M166.402 2H38.344v106.543l2.238 1.098 60.031 29.43 1.758.863 1.762-.864 60.031-29.43 2.238-1.097zm-4 4v100.05l-60.03 29.427-60.028-29.426V6zm0 0" fill="#fff"/><path d="M34.371 110.793l136-61.473V12.105l-136 61.473zm0 0" fill="#fff" stroke-width="2" stroke="#273642" stroke-miterlimit="10"/></svg>
