<svg xmlns="http://www.w3.org/2000/svg" width="29.688" height="27.438"><path d="M29.701 26.291a1.009 1.009 0 0 1-1.143 1.142h-2.285a1.009 1.009 0 0 1-1.143-1.142v-1.943l-.571.742H5.13l-.571-.742v1.943a1.01 1.01 0 0 1-1.143 1.142H1.13a1.009 1.009 0 0 1-1.142-1.142v-5.886a24.976 24.976 0 0 1 .514-6.343q.686-2 1.372-2.286 1.085-2.856 1.942-4.8 1.372-3.085 2.457-3.371a68.522 68.522 0 0 1 7.2-.172h2.743a68.541 68.541 0 0 1 7.2.172q1.085.287 2.457 3.371.857 1.943 1.942 4.8.686.287 1.372 2.286a24.976 24.976 0 0 1 .514 6.343v5.886zm-2.8-11.144a4.167 4.167 0 0 0-2.286.858 5.087 5.087 0 0 0-1.429 1.428q-2.286 2.629-1.829 2.572H8.33q.456.057-1.829-2.572a5.113 5.113 0 0 0-1.429-1.428 4.17 4.17 0 0 0-2.286-.858q-1.715 0-1.714 2.286a1.715 1.715 0 0 0 .4 1.257 1.247 1.247 0 0 0 .8.229h4.514q-.058-.057.057.114a13.708 13.708 0 0 0 1.029 1.543h13.943a14.046 14.046 0 0 0 1.029-1.543q.114-.171.057-.114h4.514a1.249 1.249 0 0 0 .8-.229 1.717 1.717 0 0 0 .4-1.257q.001-2.284-1.714-2.286zM4.044 11.49q1.428-.055 10.8-.057t10.8.057a.505.505 0 0 0 .572-.571v-.171q-.4-.972-1.372-3.258-.857-2-1.6-2.228h-16.8q-.743.23-1.6 2.228-.973 2.344-1.372 3.258v.171a.5.5 0 0 0 .572.571zm8.686-9.2H6.844a1.143 1.143 0 1 1 0-2.286h5.886a1.144 1.144 0 1 1 0 2.287zM16.787.004a1.143 1.143 0 1 0 0 2.286h5.886a1.143 1.143 0 0 0 0-2.286h-5.886z" fill="currentColor" fill-rule="evenodd"/></svg>
