<svg xmlns="http://www.w3.org/2000/svg" width="33" height="35.75"><path d="M21.986 33.127c3.9-.066 7.6.429 8.833.962-1.22.278-4.818-.233-8.833-.962m-7.569-19.6l5.049 5.049-4.039 4.038-5.048-5.048zm8.771-8.771l5.049 5.048-4.037 4.042-5.048-5.048zm-6.347 27.372c-1.936-.393-3.777-.782-5.3-1.1-1.806-.382-3.324-.7-4.578-.953l3.209-3.209c.075.005.149.022.224.022a4.268 4.268 0 0 0 3.029-1.255l1.34-1.34 1.169-1.169 4.038-4.039 4.733-4.732 4.039-4.039 1.036-1.037 1.967-1.966a4.284 4.284 0 1 0-6.058-6.058l-1.967 1.966-1.036 1.037-4.039 4.039-4.733 4.732-4.038 4.039-1.169 1.169-1.34 1.34a4.257 4.257 0 0 0-1.234 3.253L.839 28.122a2.856 2.856 0 1 0 4.039 4.039l.869-.87c1.529.3 3.481.707 5.5 1.134q1.189.252 2.3.485c-7.16 2-10.508 1.491-11.367.846a.434.434 0 0 1-.233-.368.714.714 0 1 0-1.428 0 1.841 1.841 0 0 0 .8 1.512 6.544 6.544 0 0 0 3.795.856 36.271 36.271 0 0 0 9.651-1.712 18.716 18.716 0 0 1 2.035-.469c9.153 1.851 13.889 2.483 15.174 1.546a1.146 1.146 0 0 0 .477-1.474c-.883-1.788-9.582-2.483-15.609-1.517" fill="currentColor" fill-rule="evenodd"/></svg>
