<svg xmlns="http://www.w3.org/2000/svg" width="315.165" height="130.727" viewBox="0 0 236.374 98.045"><path d="M7.832 49.023L118.188 3.246l110.355 45.777-110.356 45.774zm0 0" fill="#273642"/><path d="M118.188 0l-2.301.953L13.359 43.48 0 49.023l13.36 5.54 102.527 42.53 2.3.954 2.297-.953 102.528-42.531 13.363-5.54-13.363-5.543L120.484.953zM15.66 49.023L118.188 6.496l102.527 42.527-102.528 42.528zm0 0" fill="#273642"/><path d="M10.441 49.023L118.187 4.332l107.747 44.691-107.746 44.692zm0 0" fill="#273642"/><path d="M118.188 2.164l-1.536.637L14.13 45.328l-8.91 3.695 8.91 3.696 102.523 42.527 1.535.633 1.532-.633L222.246 52.72l8.906-3.696-8.906-3.695L119.72 2.801zm0 4.332l102.527 42.527-102.528 42.528L15.66 49.023zm0 0" fill="#fff"/><path d="M68.715 27.016v44.011l49.472 20.524 49.473-20.524V27.016l-49.472-20.52zm0 0" fill="#fff"/><path d="M118.188 6.496L15.66 49.023l102.528 42.528 102.527-42.528zm0 3.246l94.695 39.281-94.696 39.278-94.699-39.278zm0 0" fill="#273642"/></svg>
