<svg xmlns="http://www.w3.org/2000/svg" width="231.111" height="183" viewBox="0 0 173.333 137.25"><defs><clipPath id="a"><path d="M18 0h138v137.25H18zm0 0"/></clipPath><clipPath id="b"><path d="M0 17h173.332v104H0zm0 0"/></clipPath></defs><g clip-path="url(#a)"><path d="M86.668 0l-1.832 42.527L77.102.668l4.109 42.371L67.727 2.66l9.964 41.387L58.72 5.94l15.625 39.594-24.086-35.094 20.984 37.036L42.5 16.074l25.938 33.754-32.833-27.094 30.383 29.817-36.285-22.262 34.234 25.297L24.914 38.59l37.418 20.289L21.32 47.477l39.883 14.882L19 56.777l41.566 9.188L18 66.312l42.438 3.313-42.102 6.266 42.484-2.625L20 85.332l41.707-8.512-38.746 17.63 40.117-14.235-35.914 22.847 37.746-19.68-32.387 27.63L67.164 86.27l-28.227 31.863 30.86-29.32-23.516 35.484 26.477-33.332-18.348 38.41 21.582-36.691-12.824 40.59 16.266-39.337-7.051 41.977L83.016 94.7l-1.141 42.551 4.793-42.297 4.793 42.297-1.14-42.55 10.632 41.214-7.05-41.976 16.265 39.335-12.828-40.59 21.582 36.692-18.348-38.41 26.477 33.332-23.516-35.484 30.86 29.32-28.223-31.863 34.637 24.742-32.383-27.63 37.742 19.68-35.914-22.847 40.117 14.234-38.746-17.629 41.707 8.512-40.82-12.066L155 75.89l-42.105-6.266 42.437-3.313-42.566-.347 41.566-9.188-42.2 5.582 39.88-14.882L111 58.879l37.422-20.29-39.027 16.997 34.234-25.297-36.281 22.262 30.379-29.817-32.829 27.094 25.934-33.754-28.738 31.403 20.984-37.036-24.09 35.094 15.625-39.594-18.968 38.106 9.96-41.387-13.48 40.38L96.23.667l-7.734 41.86zm0 0" fill="#273642"/></g><path d="M64.016 117.453L3 89.72V47.973l61.016-27.735h45.3l61.016 27.735v41.746l-61.016 27.734zm0 0" fill="#273642"/><g clip-path="url(#b)"><path d="M108.668 17.234h-45.3l-1.184.54L3.516 44.44 0 46.04v45.613l3.516 1.598 58.668 26.664 1.183.54h46.602l1.18-.54 58.667-26.664 3.516-1.598V46.04l-3.516-1.598-58.668-26.668-1.18-.539zM6 87.785V49.902l58.668-26.668h44l58.664 26.668v37.883l-58.664 26.668h-44zm0 0" fill="#273642"/></g><path d="M64.234 116.453L4 89.074V48.617l60.234-27.379h44.864l60.234 27.38v40.456l-60.234 27.38zm0 0" fill="#273642"/><path d="M109.531 19.234h-45.73l-.79.36L4.345 46.262 2 47.328v43.035l2.344 1.067 58.668 26.664.789.36h45.73l.79-.36 58.667-26.664 2.344-1.067V47.328l-2.344-1.066-58.668-26.668zm-.863 4l58.664 26.668v37.883l-58.664 26.668h-44L6 87.785V49.902l58.668-26.668zm0 0" fill="#fff"/></svg>
