<svg xmlns="http://www.w3.org/2000/svg" width="38.906" height="34.312"><path d="M19.585 31.805a1.2 1.2 0 1 1 0 2.4h-18.4a1.2 1.2 0 1 1 0-2.4h1.2a2.419 2.419 0 0 1 .743-1.772 2.45 2.45 0 0 1 1.714-.685h11.029a2.349 2.349 0 0 1 2.457 2.457h1.257zM15.185.491a1.071 1.071 0 0 1 1.714-.115l10.286 8.629a1.071 1.071 0 0 1 .114 1.714l-.857.971a1.053 1.053 0 0 1-1.714.172l-1.829-1.543a.607.607 0 1 0-.8.914 1.075 1.075 0 0 1 .114 1.715l-2.343 2.8 5.372 4.515a2.487 2.487 0 0 1 3.486-.286l9.657 8.343a1.1 1.1 0 0 1 .172 1.714l-3.143 3.772a1.1 1.1 0 0 1-1.714.171l-9.714-8.4a2.6 2.6 0 0 1-.857-1.657 2.426 2.426 0 0 1 .571-1.771l-5.371-4.515-2.343 2.8a1.074 1.074 0 0 1-1.714.114.559.559 0 0 0-.857.114.536.536 0 0 0 .057.857l1.886 1.543a1.074 1.074 0 0 1 .114 1.714l-.857 1.029a1.1 1.1 0 0 1-1.714.171L2.673 17.348a1.112 1.112 0 0 1-.171-1.772l.857-.971a1.1 1.1 0 0 1 1.714-.171l1.829 1.6a.518.518 0 0 0 .857-.114.537.537 0 0 0-.057-.857 1.07 1.07 0 0 1-.114-1.714l6.228-7.486a1.075 1.075 0 0 1 1.714-.115.518.518 0 0 0 .857-.114.537.537 0 0 0-.057-.857l-1.885-1.543a1.073 1.073 0 0 1-.115-1.714z" fill="currentColor" fill-rule="evenodd"/></svg>
