<svg xmlns="http://www.w3.org/2000/svg" width="247.959" height="184.889" viewBox="0 0 185.969 138.667"><defs><clipPath id="a"><path d="M23 0h140v138.668H23zm0 0"/></clipPath><clipPath id="b"><path d="M0 49h185.969v41H0zm0 0"/></clipPath></defs><path d="M92.984 135.668c-36.578 0-66.332-29.758-66.332-66.336C26.652 32.758 56.406 3 92.984 3c36.579 0 66.332 29.758 66.332 66.332 0 36.578-29.754 66.336-66.332 66.336" fill="#273642"/><g clip-path="url(#a)"><path d="M92.984 0c-38.23 0-69.332 31.102-69.332 69.332 0 38.23 31.102 69.336 69.332 69.336 38.23 0 69.332-31.106 69.332-69.336S131.215 0 92.984 0m0 6c34.977 0 63.332 28.355 63.332 63.332 0 34.98-28.355 63.336-63.332 63.336-34.976 0-63.332-28.356-63.332-63.336C29.652 34.355 58.008 6 92.984 6" fill="#273642"/></g><path d="M92.984 134.668c-36.023 0-65.332-29.309-65.332-65.336C27.652 33.309 56.961 4 92.984 4c36.024 0 65.332 29.309 65.332 65.332 0 36.027-29.308 65.336-65.332 65.336" fill="#273642"/><path d="M92.984 2C55.855 2 25.652 32.207 25.652 69.332c0 37.129 30.203 67.336 67.332 67.336 37.13 0 67.332-30.207 67.332-67.336C160.316 32.207 130.113 2 92.984 2m0 4c34.977 0 63.332 28.355 63.332 63.332 0 34.98-28.355 63.336-63.332 63.336-34.976 0-63.332-28.356-63.332-63.336C29.652 34.355 58.008 6 92.984 6" fill="#fff"/><path d="M1 88.043v-3.664l10.145-15.047L1 54.289v-3.664h183.969v3.664l-10.145 15.043 10.145 15.047v3.664zm0 0" fill="#fff"/><g clip-path="url(#b)"><path d="M185.969 49.625H0v4.969l.344.508 9.597 14.23L.344 83.566 0 84.074v4.969h185.969v-4.969l-.344-.508-9.598-14.234 9.598-14.23.344-.508zm-2 2v2.355l-10.352 15.352 10.352 15.352v2.359H2v-2.36l10.352-15.351L2 53.98v-2.355zm0 0" fill="#273642"/></g><path d="M92.984 101.668c-17.828 0-32.332-14.504-32.332-32.336C60.652 51.504 75.156 37 92.984 37c17.829 0 32.332 14.504 32.332 32.332 0 17.832-14.504 32.336-32.332 32.336" fill="#fff"/><path d="M92.984 36c-18.379 0-33.332 14.953-33.332 33.332 0 18.383 14.953 33.336 33.332 33.336 18.38 0 33.332-14.953 33.332-33.336C126.316 50.953 111.363 36 92.984 36m0 2c17.305 0 31.332 14.027 31.332 31.332s-14.027 31.336-31.332 31.336c-17.304 0-31.332-14.031-31.332-31.336S75.68 38 92.984 38" fill="#273642"/></svg>
