<svg xmlns="http://www.w3.org/2000/svg" width="457.761" height="67.998" viewBox="0 0 343.321 50.998"><defs><clipPath id="a"><path d="M328 13h15.32v26H328zm0 0"/></clipPath></defs><path d="M68.277 38.504c-.222 0-.37-.149-.37-.371v-17.59c0-.148-.071-.223-.22-.223h-5.925c-.223 0-.367-.148-.367-.367v-6.11c0-.222.144-.366.367-.366h20.023c.219 0 .367.144.367.367v6.11a.349.349 0 0 1-.367.366H75.86c-.148 0-.222.075-.222.223v17.59c0 .222-.145.37-.367.37zm0 0M87.875 13.844c0-.223.148-.367.367-.367h6.996c.219 0 .367.144.367.367v8.281c0 .145.075.219.22.219h5.19c.15 0 .223-.074.223-.219v-8.281c0-.223.145-.367.367-.367h6.993c.222 0 .367.144.367.367v24.289c0 .222-.145.37-.367.37h-6.993c-.222 0-.367-.148-.367-.37V29.41c0-.144-.074-.219-.222-.219h-5.192c-.144 0-.219.075-.219.22v8.722c0 .222-.148.37-.367.37h-6.996c-.219 0-.367-.148-.367-.37zm0 0M116.125 13.844c0-.223.148-.367.367-.367h6.996c.219 0 .367.144.367.367v24.289c0 .222-.148.37-.367.37h-6.996c-.219 0-.367-.148-.367-.37zm0 0M129.848 35.262a.495.495 0 0 1-.036-.66L133.712 30c.148-.184.332-.184.48-.035 1.399 1.25 3.79 2.43 6.11 2.43 1.953 0 2.87-.63 2.87-1.622 0-.664-.44-1.066-2.355-1.324l-1.324-.183c-5.742-.813-8.797-3.352-8.797-8.286 0-4.746 3.79-7.945 9.754-7.945 3.715 0 7.067 1.067 9.457 2.871.223.145.258.364.074.625l-3.312 4.711c-.148.184-.332.219-.516.11-1.617-1.067-3.496-1.805-5.41-1.805-1.472 0-2.137.59-2.137 1.363 0 .735.59 1.102 2.395 1.36l1.324.187c5.926.809 8.762 3.348 8.762 8.316 0 4.747-3.719 8.172-10.711 8.172-4.309 0-8.613-1.73-10.527-3.683M156.586 35.598c-.145-.149-.219-.371-.074-.555l2.285-2.648c.144-.188.367-.188.512-.04 1.62 1.29 4.015 2.653 6.812 2.653 2.98 0 4.711-1.512 4.711-3.61 0-1.8-1.105-2.98-4.566-3.457l-1.325-.183c-4.82-.664-7.546-2.985-7.546-7.145 0-4.527 3.312-7.543 8.468-7.543 3.125 0 6.11.992 8.094 2.504.184.145.223.293.078.512l-1.77 2.727c-.148.183-.331.218-.515.109-2.023-1.324-3.902-1.95-6-1.95-2.54 0-3.938 1.395-3.938 3.348 0 1.73 1.215 2.91 4.602 3.387l1.324.184c4.82.664 7.473 2.945 7.473 7.25 0 4.457-3.203 7.765-9.422 7.765-3.684 0-7.25-1.468-9.203-3.308M183.066 13.844c0-.223.149-.367.371-.367h3.606c.223 0 .367.144.367.367v24.289c0 .222-.144.37-.367.37h-3.606c-.222 0-.37-.148-.37-.37zm0 0M202.367 38.504c-.222 0-.367-.149-.367-.371V17.598c0-.149-.078-.223-.223-.223h-6.55c-.223 0-.372-.145-.372-.367v-3.164c0-.223.149-.367.372-.367h17.886c.223 0 .367.144.367.367v3.164c0 .222-.144.367-.367.367h-6.55c-.149 0-.22.074-.22.223v20.535c0 .222-.148.37-.37.37zm0 0M220.969 13.844c0-.223.148-.367.37-.367h15.677c.222 0 .37.144.37.367v3.164c0 .222-.148.367-.37.367h-11.48c-.15 0-.224.074-.224.223v6.109c0 .145.075.219.223.219h9.68c.219 0 .367.148.367.37v3.165c0 .223-.148.367-.367.367h-9.68c-.148 0-.222.074-.222.223v6.328c0 .148.074.223.222.223h11.48c.223 0 .372.148.372.367v3.164c0 .222-.149.37-.371.37H221.34c-.223 0-.371-.148-.371-.37zm0 0M252.824 38.504c-.219 0-.367-.149-.367-.371V14.762c0-.149-.074-.219-.223-.219h-7.468c-.223 0-.371-.148-.371-.371v-.328c0-.223.148-.367.37-.367h16.528c.219 0 .367.144.367.367v.328c0 .223-.148.371-.367.371h-7.473c-.148 0-.222.07-.222.219v23.37c0 .223-.149.372-.368.372zm0 0M270.21 13.844c0-.223.145-.367.368-.367h.402c.223 0 .372.144.372.367v24.289c0 .222-.149.37-.372.37h-.402c-.223 0-.367-.148-.367-.37zm0 0M288.27 38.504c-.22 0-.368-.149-.368-.371V14.762c0-.149-.074-.219-.222-.219h-7.47c-.222 0-.37-.148-.37-.371v-.328c0-.223.148-.367.37-.367h16.528c.219 0 .367.144.367.367v.328c0 .223-.148.371-.367.371h-7.476c-.145 0-.219.07-.219.219v23.37c0 .223-.148.372-.367.372zm0 0M305.656 13.844c0-.223.145-.367.367-.367h.403c.222 0 .37.144.37.367v23.37c0 .15.075.224.22.224h12.773c.223 0 .367.144.367.367v.328c0 .222-.144.37-.367.37h-13.766c-.222 0-.367-.148-.367-.37zm0 0" fill="#004686"/><g clip-path="url(#a)"><path d="M328.82 13.844c0-.223.145-.367.368-.367h13.765c.223 0 .367.144.367.367v.328c0 .223-.144.371-.367.371H330.18c-.145 0-.22.07-.22.219v10.27c0 .148.075.222.22.222h11.043c.222 0 .367.144.367.367v.332c0 .219-.145.367-.367.367H330.18c-.145 0-.22.075-.22.22v10.675c0 .148.075.222.22.222h12.773c.223 0 .367.145.367.368v.328c0 .222-.144.37-.367.37h-13.765c-.223 0-.368-.148-.368-.37zm0 0" fill="#004686"/></g><path d="M28.828 41.93L0 28.828 13.102 0l28.832 13.102zm0 0" fill="#579ddc"/><path d="M22.39 51L0 28.605l22.39-22.39 22.395 22.39zm0 0" fill="#004686"/><path d="M31.332 22.227a2.557 2.557 0 0 0-2.559-2.559 2.56 2.56 0 1 0 2.559 2.559" fill="#fff"/></svg>
