<svg xmlns="http://www.w3.org/2000/svg" width="32.844" height="36.876"><path d="M32.613 12.981a.546.546 0 0 1 .171.629l-9.257 22.914a.486.486 0 0 1-.514.342.507.507 0 0 1-.228-.057l-12.171-4.457a.511.511 0 0 1-.343-.285.6.6 0 0 1 0-.515l1.085-2.171L.328 24.124a.508.508 0 0 1-.286-.343.407.407 0 0 1 .057-.457l3.428-6.057 9.6-16.972a.614.614 0 0 1 .572-.285L25.87 1.267h.057a.162.162 0 0 0 .114.057h.057v.057h.058v.057h.057l.057.057a.05.05 0 0 0 .057.057v.115l.057.057v.228a.05.05 0 0 1-.057.057v.058l-1.543 3.257zM5.985 18.866L1.47 23.381l.857.4 4.571-4.571zm-3.2 2l2.286-2.342-.8-.286zm.343 3.315l.857.4 4.743-4.743-.914-.343zm1.657.8l.857.4 4.857-4.914-.914-.286zm1.657.8l.857.4 5.029-5.028-.915-.344zm1.657.8l.857.4 5.2-5.2-.915-.343zm3.257-20.8L9.699 8.695l7.142-7.2-1.085-.114zm-1.6 21.543l.857.4 5.314-5.315-.915-.342zm9.314-25.6l-1.085-.114-7.714 7.714.971.286zm-7.657 26.4l.858.4 5.485-5.486-.915-.286zm8.172-4.4l-.914-.343-6 6-1.086 2.114.114.057zm1.714-21.772l-1.086-.114-8.057 8.057.971.229zm.057 22.4l-.914-.343-7.829 7.886.914.343zM14.671 1.267l-.743-.057-1.029 1.771zm8.857.914l-1.085-.114-8.343 8.342.971.286zm-.343 22.8l-.914-.343-7.886 7.886.914.342zm1.486-22.686l-8.686 8.628.971.287 7.143-7.143.857-1.715zm.286 23.315l-.914-.286-7.829 7.886.857.285zm-1.943-19.2l-5.085 5.086.971.229 2.972-2.972zm3.429 19.772l-.571-.229-7.888 7.885.914.343 7.257-7.315zm5.143-12.686L24.272 6.41l-2.915 6.057 1.657.457a.519.519 0 0 1 .343.287.6.6 0 0 1 0 .514l-4.171 8.628 7.714 2.743zM20.67 34.809l3.829-3.828.857-2.058-5.6 5.6zm.114-23.714l-.971.915.457.114zm2.915 21.943l-2.114 2.114 1.086.4z" fill="currentColor" fill-rule="evenodd"/></svg>
