<svg xmlns="http://www.w3.org/2000/svg" width="22" height="22"><path d="M16.5 14.188a.694.694 0 0 0-.492-.234.5.5 0 0 0-.422.234l-1.289-1.312a7.739 7.739 0 0 0 1.687-4.9 7.992 7.992 0 1 0-14.918 4.008 7.806 7.806 0 0 0 2.918 2.918 7.891 7.891 0 0 0 4.008 1.066 7.739 7.739 0 0 0 4.9-1.687l1.312 1.289a.846.846 0 0 0-.164.492.572.572 0 0 0 .164.422l5.3 5.3a.665.665 0 0 0 .48.211.465.465 0 0 0 .411-.211l1.406-1.406a.576.576 0 0 0 0-.891zM7.992 1.977A6 6 0 1 1 3.75 3.735a5.781 5.781 0 0 1 4.242-1.756z" fill="#0777ba" fill-rule="evenodd"/></svg>
