<svg xmlns="http://www.w3.org/2000/svg" width="20" height="22.06"><path data-name="Shape 2 copy" d="M16.622 20.52a1.84 1.84 0 1 1 1.839-1.84 1.836 1.836 0 0 1-1.839 1.84M3.376 12.87a1.84 1.84 0 1 1 1.839-1.84 1.839 1.839 0 0 1-1.839 1.84m13.246-7.65a1.835 1.835 0 1 1 1.839-1.84 1.836 1.836 0 0 1-1.839 1.84m0-5.21a3.375 3.375 0 0 0-3.375 3.37 3.231 3.231 0 0 0 .159.97L5.831 8.73A3.369 3.369 0 0 0 0 11.03a3.378 3.378 0 0 0 3.376 3.38 3.342 3.342 0 0 0 2.455-1.07l7.575 4.37a3.284 3.284 0 0 0-.159.97 3.377 3.377 0 1 0 3.375-3.38 3.346 3.346 0 0 0-2.452 1.08L6.595 12a3.385 3.385 0 0 0 .159-.97 3.443 3.443 0 0 0-.159-.97l7.574-4.37a3.341 3.341 0 0 0 2.453 1.07 3.375 3.375 0 1 0 0-6.75" fill="currentColor" fill-rule="evenodd"/></svg>
