<svg xmlns="http://www.w3.org/2000/svg" width="34.25" height="36.312"><path d="M31.131 21.185l-1.086-.515a14.482 14.482 0 0 0-3.6-15.143 14.164 14.164 0 0 0-10.457-4.4A14.923 14.923 0 0 0 1.131 15.984a14.452 14.452 0 0 0 3.771 9.942 14.3 14.3 0 0 0 9.371 4.858v1.142A16.021 16.021 0 0 1 15.987-.016a15.261 15.261 0 0 1 11.257 4.743 15.259 15.259 0 0 1 4.743 11.257 16.006 16.006 0 0 1-.856 5.201zM10.274 2.27l-4 4.057a13.159 13.159 0 0 0-4 9.658 13.376 13.376 0 0 0 3.429 9.143 13.209 13.209 0 0 0 8.571 4.514v-7.029H12.16a.38.38 0 0 1-.4-.457v-.8a.41.41 0 0 1 .229-.4q.514-.171 1.029-.4a4.333 4.333 0 0 1 .743-.172v-9.142h-.058c-.42.038-.838.057-1.257.057h-.572a.366.366 0 0 1-.4-.343l-.114-.743a.449.449 0 0 1 .343-.457 17.075 17.075 0 0 0 2.171-.686 11.541 11.541 0 0 0 2.171-1.085.507.507 0 0 1 .228-.058h1.257a.354.354 0 0 1 .4.4v6.458l11.087 5.371a12.77 12.77 0 0 0 .686-4.171 13.069 13.069 0 0 0-4.057-9.658 13.07 13.07 0 0 0-9.657-4.057h-5.715zm6.8 33.486V17.47l16.343 7.943a.462.462 0 0 0 .743-.228.521.521 0 0 0-.229-.8l-17.2-8.285a.428.428 0 0 0-.514 0 .516.516 0 0 0-.286.457v19.2a.572.572 0 0 0 1.143-.001zm1.143-2.743a14.522 14.522 0 0 0 7.486-2.285 14.324 14.324 0 0 0 4.971-5.372l-1.028-.514a12.448 12.448 0 0 1-11.429 7.028v1.143z" fill="currentColor" fill-rule="evenodd"/></svg>
