<svg xmlns="http://www.w3.org/2000/svg" width="161.716" height="187.556" viewBox="0 0 121.287 140.667"><defs><clipPath id="a"><path d="M0 0h121.285v140.668H0zm0 0"/></clipPath></defs><path d="M60.645 137.668c-22.454 0-43.352-11.137-55.903-29.793l-1.125-1.676 1.125-1.672c6.813-10.125 10.41-21.945 10.41-34.191 0-12.25-3.597-24.074-10.41-34.195l-1.125-1.676 1.125-1.672C17.293 14.137 38.192 3 60.645 3c22.449 0 43.347 11.137 55.898 29.793l1.129 1.672-1.129 1.676c-6.809 10.12-10.41 21.945-10.41 34.195 0 12.246 3.601 24.066 10.41 34.191l1.129 1.672-1.129 1.676c-12.55 18.656-33.45 29.793-55.898 29.793" fill="#273642"/><g clip-path="url(#a)"><path d="M60.645 0C37.19 0 15.363 11.633 2.254 31.117L0 34.465l2.254 3.351c6.476 9.625 9.898 20.868 9.898 32.516s-3.422 22.895-9.898 32.52L0 106.203l2.254 3.348c13.11 19.484 34.937 31.117 58.39 31.117 23.45 0 45.278-11.633 58.391-31.117l2.25-3.348-2.25-3.351c-6.48-9.625-9.902-20.872-9.902-32.52 0-11.648 3.422-22.89 9.902-32.516l2.25-3.351-2.25-3.348C105.922 11.633 84.094 0 60.645 0m0 6c22.25 0 41.859 11.297 53.41 28.465-6.895 10.25-10.922 22.59-10.922 35.867 0 13.281 4.027 25.621 10.922 35.871-11.551 17.168-31.16 28.465-53.41 28.465-22.25 0-41.86-11.297-53.415-28.465 6.899-10.25 10.922-22.59 10.922-35.871 0-13.277-4.023-25.617-10.922-35.867C18.785 17.297 38.395 6 60.645 6" fill="#273642"/></g><path d="M60.645 136.668c-22.118 0-42.708-10.973-55.07-29.352L4.82 106.2l.754-1.113c6.922-10.29 10.578-22.305 10.578-34.75 0-12.45-3.656-24.465-10.578-34.754l-.754-1.117.754-1.113C17.938 14.972 38.524 4 60.644 4c22.118 0 42.704 10.973 55.07 29.352l.75 1.113-.75 1.117c-6.921 10.29-10.581 22.305-10.581 34.754 0 12.445 3.66 24.46 10.582 34.75l.75 1.113-.75 1.117c-12.367 18.38-32.953 29.352-55.07 29.352" fill="#273642"/><path d="M60.645 2C37.859 2 16.652 13.3 3.915 32.234l-1.505 2.23L3.914 36.7c6.7 9.957 10.238 21.586 10.238 33.633 0 12.05-3.539 23.68-10.238 33.637l-1.504 2.234 1.504 2.23c12.738 18.934 33.945 30.235 56.73 30.235 22.786 0 43.993-11.3 56.731-30.234l1.5-2.23-1.5-2.235c-6.7-9.957-10.242-21.586-10.242-33.637 0-12.047 3.543-23.676 10.242-33.633l1.5-2.234-1.5-2.23C104.637 13.3 83.43 2 60.645 2m0 4c22.25 0 41.859 11.297 53.41 28.465-6.895 10.25-10.922 22.59-10.922 35.867 0 13.281 4.027 25.621 10.922 35.871-11.551 17.168-31.16 28.465-53.41 28.465-22.25 0-41.86-11.297-53.415-28.465 6.899-10.25 10.922-22.59 10.922-35.871 0-13.277-4.023-25.617-10.922-35.867C18.785 17.297 38.395 6 60.645 6" fill="#fff"/></svg>
